# xmcd
#
# Track frame offsets:
#	150
#	20167
#	40355
#	53137
#	67152
#	80185
#	105005
#	131022
#	157327
#	171977
#	196560
#	213075
#	228645
#	245497
#	257557
#
# Disc length: 3664 seconds
#
# Revision: 1
# Processed by: cddbd v1.5.1PL0 Copyright (c) Steve Scherf et al.
# Submitted via: CDex 1.50Beta5
#
DISCID=d50e4e0f
DTITLE=a〜ha - COVERS 1
DYEAR=1994
DGENRE=Rock
TTITLE0=a〜ha/クライング・イン・ザ・レイン
TTITLE1=シャインヘッド/ジャマイカン・イン・ニューヨーク
TTITLE2=デビッド・リー・ロス/カリフォルニア・ガール
TTITLE3=ヒューイ・ルイス&ザ・ニュース/サム・カインド・オブ・ワンダフル
TTITLE4=フィル・コリンズ/恋はあせらず
TTITLE5=アズテック・カメラ/ジャンプ
TTITLE6=チャカ・カーン/フィール・フォー・ユー
TTITLE7=アル・B・シュア!/ホテル・カリフォルニア
TTITLE8=カイリー・ミノーグ/ロコモーション
TTITLE9=アンダーカバー/アイム・ノット・イン・ラブ
TTITLE10=ザップ/オー・ベイビー・ベイビー
TTITLE11=リンダ・ロンシュタット/アリスン
TTITLE12=ドリーム・アカデミー/ラブ
TTITLE13=ディーボ/サティスファクション
TTITLE14=ベス・ニールセン・チャップマン/ユー・ライト・アップ・マイ・ライフ
EXTD=
EXTT0=
EXTT1=
EXTT2=
EXTT3=
EXTT4=
EXTT5=
EXTT6=
EXTT7=
EXTT8=
EXTT9=
EXTT10=
EXTT11=
EXTT12=
EXTT13=
EXTT14=
PLAYORDER=
